####################################
# netfabb Wavefront export         #
####################################
v 49.00000 2.00000 0.00000
v 47.50000 2.00000 0.00000
v 48.25000 17.49800 0.00000
v 46.00000 2.00000 0.00000
v 46.75000 -13.50000 0.00000
v 48.25000 -13.50000 0.00000
v 46.75000 17.49800 0.00000
v 46.00000 33.00000 0.00000
v 49.00000 -29.00000 0.00000
v 39.12600 -13.50000 9.75000
v 32.25000 -13.50000 19.50000
v 32.25000 2.00000 19.50000
v -12.00000 2.00000 0.00000
v -10.50200 2.00000 0.00000
v -11.25200 -13.50000 0.00000
v -9.75200 -13.50000 0.00000
v -9.00200 -29.00000 0.00000
v -11.25200 17.49800 0.00000
v -9.00200 2.00000 0.00000
v 46.00000 -13.50000 0.00000
v -9.75200 17.49800 0.00000
v -12.00000 33.00000 0.00000
v 18.50000 2.00000 39.00200
v 25.37400 17.49800 29.25200
v 39.12600 17.49800 9.75000
v 32.25000 17.49800 19.50000
v 10.87400 17.49800 31.49800
v 3.25000 17.49800 20.99800
v 3.25000 2.00000 20.99800
v -2.12600 -13.50000 9.75000
v 4.74800 2.00000 19.50000
v 4.74800 -13.50000 19.50000
v 18.50000 2.00000 41.99800
v -4.37600 17.49800 10.49800
v -4.37600 -13.50000 10.49800
v 3.25000 -13.50000 20.99800
v 25.37400 -13.50000 29.25200
v -2.12600 17.49800 9.75000
v 4.74800 17.49800 19.50000
v 11.62400 17.49800 29.25200
v 11.62400 -13.50000 29.25200
v 41.37400 17.49800 10.49800
v 33.75000 33.00000 20.99800
v 33.75000 17.49800 20.99800
v 26.12400 17.49800 31.49800
v 26.12400 -13.50000 31.49800
v 33.75000 -29.00000 20.99800
v 33.75000 -13.50000 20.99800
v 41.37400 -13.50000 10.49800
v 3.25000 33.00000 20.99800
v -12.00000 17.49800 0.00000
v 10.87400 -13.50000 31.49800
v 18.50000 -13.50000 41.99800
v 3.25000 -29.00000 20.99800
v 32.25000 -29.00000 19.50000
v 4.74800 -29.00000 19.50000
v 32.25000 33.00000 19.50000
v 4.74800 33.00000 19.50000
v 18.50000 17.49800 41.99800
v -12.00000 -13.50000 0.00000
v -9.00200 -13.50000 0.00000
v 18.50000 17.49800 39.00200
v 49.00000 17.49800 0.00000
v 18.50000 -13.50000 39.00200
v -9.00200 17.49800 0.00000
v 46.00000 17.49800 0.00000
v 49.00000 -13.50000 0.00000
v 18.50000 33.00000 39.00200
v 49.00000 33.00000 0.00000
v 18.50000 -29.00000 39.00200
v 18.50000 33.00000 41.99800
v -12.00000 -29.00000 0.00000
v -9.00200 33.00000 0.00000
v 46.00000 -29.00000 0.00000
v 33.75000 -29.00000 19.50000
v 18.50000 -29.00000 41.99800
v 3.25000 33.00000 19.50000
v 33.75000 33.00000 19.50000
v 3.25000 -29.00000 19.50000
v 33.75000 2.00000 20.99800
####################################
vn 0.000 1.000 0.000
vn 0.000 1.000 0.000
vn 0.000 1.000 0.000
vn 0.000 1.000 0.000
vn 0.000 1.000 0.000
vn 0.000 1.000 0.000
vn 0.000 1.000 0.000
vn 0.000 1.000 0.000
vn 0.000 1.000 0.000
vn 0.000 1.000 0.000
vn 0.000 1.000 0.000
vn 0.000 1.000 0.000
vn 0.000 -1.000 0.000
vn 0.000 -1.000 0.000
vn 0.000 -1.000 0.000
vn 0.000 -1.000 0.000
vn 0.000 -1.000 0.000
vn 0.000 -1.000 0.000
vn 0.000 -1.000 0.000
vn 0.000 -1.000 0.000
vn 0.000 -1.000 0.000
vn 0.000 -1.000 0.000
vn 0.000 -1.000 0.000
vn 0.000 -1.000 0.000
vn 0.000 0.000 -1.000
vn 0.000 0.000 -1.000
vn 0.000 0.000 -1.000
vn 0.000 0.000 -1.000
vn 0.000 0.000 -1.000
vn 0.000 0.000 -1.000
vn 0.000 0.000 -1.000
vn 0.000 0.000 -1.000
vn 0.000 0.000 -1.000
vn 0.000 0.000 -1.000
vn 0.000 0.000 -1.000
vn 0.000 0.000 -1.000
vn 0.000 0.000 -1.000
vn 0.000 0.000 -1.000
vn 0.000 0.000 -1.000
vn 0.000 0.000 -1.000
vn 0.000 0.000 -1.000
vn 0.000 0.000 -1.000
vn 0.000 0.000 -1.000
vn 0.000 0.000 -1.000
vn 0.000 0.000 -1.000
vn 0.000 0.000 -1.000
vn 0.000 0.000 -1.000
vn 0.000 0.000 -1.000
vn 0.000 0.000 -1.000
vn 0.000 0.000 -1.000
vn 0.000 0.000 -1.000
vn 0.000 0.000 -1.000
vn 0.000 0.000 -1.000
vn 0.000 0.000 -1.000
vn 0.000 0.000 -1.000
vn 0.000 0.000 -1.000
vn 0.000 0.000 -1.000
vn 0.000 0.000 -1.000
vn 0.000 0.000 -1.000
vn 0.000 0.000 -1.000
vn 0.817 0.000 -0.576
vn 0.817 0.000 -0.576
vn 0.817 0.000 -0.576
vn 0.817 0.000 -0.576
vn 0.817 0.000 -0.576
vn 0.809 0.000 0.588
vn 0.809 0.000 0.588
vn 0.809 0.000 0.588
vn 0.809 0.000 0.588
vn 0.809 0.000 0.588
vn 0.809 0.000 0.588
vn -0.817 0.000 -0.576
vn -0.817 0.000 -0.576
vn -0.817 0.000 -0.576
vn -0.817 0.000 -0.576
vn -0.817 0.000 -0.576
vn -0.809 0.000 0.588
vn -0.809 0.000 0.588
vn -0.809 0.000 0.588
vn -0.809 0.000 0.588
vn -0.809 0.000 0.588
vn -0.809 0.000 0.588
vn 0.809 0.000 0.588
vn 0.809 0.000 0.588
vn 0.809 0.000 0.588
vn 0.809 0.000 0.588
vn 0.809 0.000 0.588
vn 0.809 0.000 0.588
vn -0.809 0.000 0.588
vn -0.809 0.000 0.588
vn -0.809 0.000 0.588
vn -0.809 0.000 0.588
vn -0.809 0.000 0.588
vn -0.809 0.000 0.588
vn 0.817 0.000 -0.576
vn 0.817 0.000 -0.576
vn 0.817 0.000 -0.576
vn 0.817 0.000 -0.576
vn 0.817 0.000 -0.576
vn -0.817 0.000 -0.576
vn -0.817 0.000 -0.576
vn -0.817 0.000 -0.576
vn -0.817 0.000 -0.576
vn -0.817 0.000 -0.576
vn 0.817 0.000 -0.576
vn -0.817 0.000 -0.576
vn -0.817 0.000 -0.576
vn 0.817 0.000 -0.576
vn -0.809 0.000 0.588
vn -0.809 0.000 0.588
vn -0.809 0.000 0.588
vn -0.809 0.000 0.588
vn -0.809 0.000 0.588
vn -0.809 0.000 0.588
vn 0.809 0.000 0.588
vn 0.809 0.000 0.588
vn 0.809 0.000 0.588
vn 0.809 0.000 0.588
vn 0.809 0.000 0.588
vn 0.809 0.000 0.588
vn 0.809 0.000 0.588
vn 0.809 0.000 0.588
vn 0.809 0.000 0.588
vn 0.809 0.000 0.588
vn 0.809 0.000 0.588
vn 0.809 0.000 0.588
vn -0.809 0.000 0.588
vn -0.809 0.000 0.588
vn -0.809 0.000 0.588
vn -0.809 0.000 0.588
vn -0.809 0.000 0.588
vn -0.809 0.000 0.588
vn -0.817 0.000 -0.576
vn -0.817 0.000 -0.576
vn -0.817 0.000 -0.576
vn -0.817 0.000 -0.576
vn -0.817 0.000 -0.576
vn 0.817 0.000 -0.576
vn 0.817 0.000 -0.576
vn 0.817 0.000 -0.576
vn 0.817 0.000 -0.576
vn 0.817 0.000 -0.576
vn 0.817 0.000 -0.576
vn 0.817 0.000 -0.576
vn 0.817 0.000 -0.576
vn 0.817 0.000 -0.576
vn 0.817 0.000 -0.576
vn 0.817 0.000 -0.576
vn 0.817 0.000 -0.576
vn -0.817 0.000 -0.576
vn -0.817 0.000 -0.576
vn -0.817 0.000 -0.576
vn -0.817 0.000 -0.576
vn -0.817 0.000 -0.576
vn -0.817 0.000 -0.576
vn -0.817 0.000 -0.576
####################################
f 78//1 68//1 43//1
f 68//2 77//2 50//2
f 78//3 8//3 57//3
f 77//4 68//4 58//4
f 8//5 78//5 69//5
f 71//6 43//6 68//6
f 43//7 69//7 78//7
f 58//8 73//8 77//8
f 50//9 71//9 68//9
f 57//10 68//10 78//10
f 22//11 77//11 73//11
f 22//12 50//12 77//12
f 72//13 79//13 54//13
f 55//14 75//14 70//14
f 72//15 17//15 79//15
f 47//16 75//16 9//16
f 75//17 47//17 70//17
f 76//18 70//18 47//18
f 79//19 56//19 70//19
f 70//20 54//20 79//20
f 56//21 79//21 17//21
f 75//22 55//22 74//22
f 74//23 9//23 75//23
f 54//24 70//24 76//24
f 73//25 21//25 22//25
f 72//26 60//26 15//26
f 51//27 22//27 18//27
f 73//28 65//28 21//28
f 2//29 3//29 1//29
f 72//30 15//30 17//30
f 61//31 17//31 16//31
f 74//32 20//32 5//32
f 74//33 5//33 9//33
f 21//34 14//34 18//34
f 5//35 6//35 9//35
f 66//36 8//36 7//36
f 67//37 9//37 6//37
f 69//38 63//38 3//38
f 21//39 18//39 22//39
f 65//40 19//40 21//40
f 4//41 66//41 7//41
f 3//42 2//42 7//42
f 1//43 67//43 6//43
f 69//44 3//44 8//44
f 3//45 7//45 8//45
f 4//46 7//46 2//46
f 2//47 5//47 4//47
f 1//48 6//48 2//48
f 14//49 21//49 19//49
f 63//50 1//50 3//50
f 19//51 61//51 16//51
f 60//52 13//52 15//52
f 15//53 14//53 16//53
f 13//54 51//54 18//54
f 19//55 16//55 14//55
f 5//56 2//56 6//56
f 13//57 18//57 14//57
f 15//58 16//58 17//58
f 20//59 4//59 5//59
f 14//60 15//60 13//60
f 56//61 17//61 30//61
f 30//62 17//62 61//62
f 65//63 73//63 38//63
f 38//64 19//64 65//64
f 61//65 19//65 30//65
f 9//66 49//66 47//66
f 47//67 46//67 76//67
f 63//68 69//68 42//68
f 49//69 9//69 67//69
f 67//70 1//70 49//70
f 42//71 1//71 63//71
f 57//72 8//72 25//72
f 66//73 25//73 8//73
f 10//74 20//74 74//74
f 20//75 10//75 4//75
f 25//76 66//76 4//76
f 72//77 54//77 35//77
f 54//78 76//78 52//78
f 53//79 52//79 76//79
f 27//80 59//80 71//80
f 52//81 53//81 33//81
f 59//82 27//82 33//82
f 53//83 76//83 46//83
f 59//84 33//84 45//84
f 45//85 71//85 59//85
f 46//86 33//86 53//86
f 43//87 42//87 69//87
f 71//88 45//88 43//88
f 51//89 34//89 22//89
f 60//90 35//90 13//90
f 35//91 60//91 72//91
f 34//92 51//92 13//92
f 71//93 50//93 27//93
f 50//94 22//94 34//94
f 64//95 70//95 41//95
f 41//96 23//96 64//96
f 40//97 68//97 62//97
f 62//98 23//98 40//98
f 58//99 68//99 40//99
f 64//100 37//100 70//100
f 37//101 64//101 23//101
f 24//102 62//102 68//102
f 62//103 24//103 23//103
f 55//104 70//104 37//104
f 58//105 38//105 73//105
f 57//106 24//106 68//106
f 55//107 10//107 74//107
f 56//108 41//108 70//108
f 36//109 52//109 29//109
f 28//110 27//110 50//110
f 52//111 36//111 54//111
f 27//112 28//112 29//112
f 29//113 13//113 35//113
f 33//114 29//114 52//114
f 48//115 47//115 49//115
f 49//116 80//116 48//116
f 44//117 80//117 42//117
f 42//118 43//118 44//118
f 33//119 46//119 80//119
f 80//120 49//120 1//120
f 80//121 45//121 33//121
f 1//122 42//122 80//122
f 45//123 80//123 44//123
f 48//124 80//124 46//124
f 46//125 47//125 48//125
f 44//126 43//126 45//126
f 13//127 29//127 34//127
f 29//128 33//128 27//128
f 36//129 35//129 54//129
f 35//130 36//130 29//130
f 34//131 28//131 50//131
f 28//132 34//132 29//132
f 25//133 26//133 57//133
f 11//134 10//134 55//134
f 10//135 11//135 12//135
f 26//136 25//136 12//136
f 4//137 12//137 25//137
f 38//138 58//138 39//138
f 32//139 56//139 30//139
f 39//140 31//140 38//140
f 30//141 31//141 32//141
f 19//142 31//142 30//142
f 23//143 31//143 40//143
f 39//144 58//144 40//144
f 41//145 56//145 32//145
f 32//146 31//146 41//146
f 40//147 31//147 39//147
f 23//148 41//148 31//148
f 19//149 38//149 31//149
f 23//150 12//150 37//150
f 26//151 24//151 57//151
f 11//152 37//152 12//152
f 37//153 11//153 55//153
f 24//154 26//154 12//154
f 23//155 24//155 12//155
f 4//156 10//156 12//156
####################################
